REM DIRINDEX 1\2\4,1\2\5,1\2\6,1\3\7,1\3\8
REM DIRNAME folder01,folder02,folder03,folder04,folder05,folder06,folder07,folder08
TITLE ""
FILE "021_Lesson 17_Output_Stage.mp3" MP3
  TRACK 01 AUDIO
    TITLE "0:"
    INDEX 01 00:00:00
  TRACK 02 AUDIO
    TITLE "8:cjc128_3236"
    INDEX 01 00:00:09
  TRACK 03 AUDIO
    TITLE "0:"
    INDEX 01 00:03:29
  TRACK 04 AUDIO
    TITLE "8:cjc128_3237"
    INDEX 01 00:04:09
  TRACK 05 AUDIO
    TITLE "0:"
    INDEX 01 00:06:04
  TRACK 06 AUDIO
    TITLE "7:cjc128_3238"
    INDEX 01 00:06:61
  TRACK 07 AUDIO
    TITLE "0:"
    INDEX 01 00:10:47
  TRACK 08 AUDIO
    TITLE "8:cjc128_3239"
    INDEX 01 00:15:01
  TRACK 09 AUDIO
    TITLE "0:"
    INDEX 01 00:16:55
  TRACK 10 AUDIO
    TITLE "7:cjc128_3240"
    INDEX 01 00:17:37
  TRACK 11 AUDIO
    TITLE "0:"
    INDEX 01 00:20:08
  TRACK 12 AUDIO
    TITLE "8:cjc128_3241"
    INDEX 01 00:23:18
  TRACK 13 AUDIO
    TITLE "0:"
    INDEX 01 00:25:13
  TRACK 14 AUDIO
    TITLE "7:cjc128_3242"
    INDEX 01 00:25:64
  TRACK 15 AUDIO
    TITLE "0:"
    INDEX 01 00:28:55
  TRACK 16 AUDIO
    TITLE "8:cjc128_3243"
    INDEX 01 00:32:13
  TRACK 17 AUDIO
    TITLE "0:"
    INDEX 01 00:33:38
  TRACK 18 AUDIO
    TITLE "7:cjc128_3244"
    INDEX 01 00:34:20
  TRACK 19 AUDIO
    TITLE "0:"
    INDEX 01 00:38:35
  TRACK 20 AUDIO
    TITLE "8:cjc128_3245"
    INDEX 01 00:43:60
  TRACK 21 AUDIO
    TITLE "0:"
    INDEX 01 00:45:49
  TRACK 22 AUDIO
    TITLE "7:cjc128_3246"
    INDEX 01 00:46:31
  TRACK 23 AUDIO
    TITLE "0:"
    INDEX 01 00:48:63
  TRACK 24 AUDIO
    TITLE "8:cjc128_3247"
    INDEX 01 00:51:60
  TRACK 25 AUDIO
    TITLE "0:"
    INDEX 01 00:53:49
  TRACK 26 AUDIO
    TITLE "7:cjc128_3248"
    INDEX 01 00:54:32
  TRACK 27 AUDIO
    TITLE "0:"
    INDEX 01 00:58:03
  TRACK 28 AUDIO
    TITLE "8:cjc128_3249"
    INDEX 01 01:01:72
  TRACK 29 AUDIO
    TITLE "0:"
    INDEX 01 01:03:59
  TRACK 30 AUDIO
    TITLE "7:cjc128_3250"
    INDEX 01 01:04:37
  TRACK 31 AUDIO
    TITLE "0:"
    INDEX 01 01:07:47
  TRACK 32 AUDIO
    TITLE "8:cjc128_3251"
    INDEX 01 01:11:66
  TRACK 33 AUDIO
    TITLE "0:"
    INDEX 01 01:13:53
  TRACK 34 AUDIO
    TITLE "7:cjc128_3252"
    INDEX 01 01:14:39
  TRACK 35 AUDIO
    TITLE "0:"
    INDEX 01 01:16:67
  TRACK 36 AUDIO
    TITLE "8:cjc128_3253"
    INDEX 01 01:19:46
  TRACK 37 AUDIO
    TITLE "0:"
    INDEX 01 01:21:37
  TRACK 38 AUDIO
    TITLE "7:cjc128_3254"
    INDEX 01 01:22:35
  TRACK 39 AUDIO
    TITLE "0:"
    INDEX 01 01:25:29
  TRACK 40 AUDIO
    TITLE "8:cjc128_3255"
    INDEX 01 01:28:61
  TRACK 41 AUDIO
    TITLE "0:"
    INDEX 01 01:30:48
  TRACK 42 AUDIO
    TITLE "7:cjc128_3256"
    INDEX 01 01:31:43
  TRACK 43 AUDIO
    TITLE "0:"
    INDEX 01 01:34:40
  TRACK 44 AUDIO
    TITLE "8:cjc128_3257"
    INDEX 01 01:37:60
  TRACK 45 AUDIO
    TITLE "0:"
    INDEX 01 01:39:43
  TRACK 46 AUDIO
    TITLE "7:cjc128_3258"
    INDEX 01 01:40:13
  TRACK 47 AUDIO
    TITLE "0:"
    INDEX 01 01:43:02
  TRACK 48 AUDIO
    TITLE "8:cjc128_3259"
    INDEX 01 01:46:21
  TRACK 49 AUDIO
    TITLE "0:"
    INDEX 01 01:47:70
  TRACK 50 AUDIO
    TITLE "7:cjc128_3260"
    INDEX 01 01:48:50
  TRACK 51 AUDIO
    TITLE "0:"
    INDEX 01 01:52:22
  TRACK 52 AUDIO
    TITLE "8:cjc128_3261"
    INDEX 01 01:56:47
  TRACK 53 AUDIO
    TITLE "0:"
    INDEX 01 01:58:34
  TRACK 54 AUDIO
    TITLE "7:cjc128_3262"
    INDEX 01 01:59:44
  TRACK 55 AUDIO
    TITLE "0:"
    INDEX 01 02:02:03
  TRACK 56 AUDIO
    TITLE "8:cjc128_3263"
    INDEX 01 02:04:74
  TRACK 57 AUDIO
    TITLE "0:"
    INDEX 01 02:06:48
  TRACK 58 AUDIO
    TITLE "7:cjc128_3264"
    INDEX 01 02:07:20
  TRACK 59 AUDIO
    TITLE "0:"
    INDEX 01 02:10:40
  TRACK 60 AUDIO
    TITLE "8:cjc128_3265"
    INDEX 01 02:14:04
  TRACK 61 AUDIO
    TITLE "0:"
    INDEX 01 02:15:52
  TRACK 62 AUDIO
    TITLE "7:cjc128_3266"
    INDEX 01 02:16:34
  TRACK 63 AUDIO
    TITLE "0:"
    INDEX 01 02:20:28
  TRACK 64 AUDIO
    TITLE "8:cjc128_3267"
    INDEX 01 02:24:63
  TRACK 65 AUDIO
    TITLE "0:"
    INDEX 01 02:26:44
  TRACK 66 AUDIO
    TITLE "7:cjc128_3268"
    INDEX 01 02:27:18
  TRACK 67 AUDIO
    TITLE "0:"
    INDEX 01 02:30:42
  TRACK 68 AUDIO
    TITLE "8:cjc128_3269"
    INDEX 01 02:34:17
  TRACK 69 AUDIO
    TITLE "0:"
    INDEX 01 02:36:13
  TRACK 70 AUDIO
    TITLE "7:cjc128_3270"
    INDEX 01 02:36:68
  TRACK 71 AUDIO
    TITLE "0:"
    INDEX 01 02:39:45
  TRACK 72 AUDIO
    TITLE "8:cjc128_3271"
    INDEX 01 02:42:51
  TRACK 73 AUDIO
    TITLE "0:"
    INDEX 01 02:44:46
  TRACK 74 AUDIO
    TITLE "7:cjc128_3272"
    INDEX 01 02:45:32
  TRACK 75 AUDIO
    TITLE "0:"
    INDEX 01 02:48:44
  TRACK 76 AUDIO
    TITLE "8:cjc128_3273"
    INDEX 01 02:52:52
  TRACK 77 AUDIO
    TITLE "0:"
    INDEX 01 02:54:47
  TRACK 78 AUDIO
    TITLE "7:cjc128_3274"
    INDEX 01 02:55:28
  TRACK 79 AUDIO
    TITLE "0:"
    INDEX 01 02:58:25
  TRACK 80 AUDIO
    TITLE "8:cjc128_3275"
    INDEX 01 03:01:74
  TRACK 81 AUDIO
    TITLE "0:"
    INDEX 01 03:04:00
  TRACK 82 AUDIO
    TITLE "7:cjc128_3276"
    INDEX 01 03:04:53
  TRACK 83 AUDIO
    TITLE "0:"
    INDEX 01 03:08:15
  TRACK 84 AUDIO
    TITLE "8:cjc128_3277"
    INDEX 01 03:12:23
  TRACK 85 AUDIO
    TITLE "0:"
    INDEX 01 03:14:38
  TRACK 86 AUDIO
    TITLE "7:cjc128_3278"
    INDEX 01 03:15:17
  TRACK 87 AUDIO
    TITLE "0:"
    INDEX 01 03:18:65
  TRACK 88 AUDIO
    TITLE "8:cjc128_3279"
    INDEX 01 03:22:68
  TRACK 89 AUDIO
    TITLE "0:"
    INDEX 01 03:24:61
  TRACK 90 AUDIO
    TITLE "7:cjc128_3280"
    INDEX 01 03:25:39
  TRACK 91 AUDIO
    TITLE "0:"
    INDEX 01 03:28:18
  TRACK 92 AUDIO
    TITLE "8:cjc128_3281"
    INDEX 01 03:31:24
  TRACK 93 AUDIO
    TITLE "0:"
    INDEX 01 03:33:19
  TRACK 94 AUDIO
    TITLE "7:cjc128_3282"
    INDEX 01 03:33:72
  TRACK 95 AUDIO
    TITLE "0:"
    INDEX 01 03:37:52
  TRACK 96 AUDIO
    TITLE "8:cjc128_3283"
    INDEX 01 03:41:72
  TRACK 97 AUDIO
    TITLE "0:"
    INDEX 01 03:43:49
  TRACK 98 AUDIO
    TITLE "7:cjc128_3284"
    INDEX 01 03:44:23
  TRACK 99 AUDIO
    TITLE "0:"
    INDEX 01 03:47:12
